<?xml version="1.0" encoding="UTF-8" standalone="no"?>
<svg
   xmlns:dc="http://purl.org/dc/elements/1.1/"
   xmlns:cc="http://creativecommons.org/ns#"
   xmlns:rdf="http://www.w3.org/1999/02/22-rdf-syntax-ns#"
   xmlns:svg="http://www.w3.org/2000/svg"
   xmlns="http://www.w3.org/2000/svg"
   viewBox="0 0 622 52"
   height="52"
   width="622"
   xml:space="preserve"
   version="1.1"
   id="svg2"><metadata
     id="metadata8"><rdf:RDF><cc:Work
         rdf:about=""><dc:format>image/svg+xml</dc:format><dc:type
           rdf:resource="http://purl.org/dc/dcmitype/StillImage" /><dc:title></dc:title></cc:Work></rdf:RDF></metadata><defs
     id="defs6" /><g
     transform="matrix(1.25,0,0,-1.25,0,51.999999)"
     id="g10"><g
       transform="scale(0.1,0.1)"
       id="g12"><path
         id="path14"
         style="fill:#94a1b5;fill-opacity:1;fill-rule:nonzero;stroke:none"
         d="m 384.738,399.063 -72.258,0 L 192.367,82.0586 72.2383,399.063 0,399.063 130.867,53.6758 l 0.008,0 c 10.105,-24.0547 33.883,-40.9531 61.609,-40.9531 30.485,0 56.145,20.4375 64.164,48.3398 l 128.09,338.0005" /><path
         id="path16"
         style="fill:#94a1b5;fill-opacity:1;fill-rule:nonzero;stroke:none"
         d="m 1086.97,84.9805 -136.357,0 0,-0.0078 c -66.785,0.0429 -120.918,54.0903 -120.918,120.8943 0,66.817 54.157,120.926 120.961,120.942 l 0,0.004 136.264,0 0,72.25 -136.307,0 0,-0.004 C 843.945,399.039 757.484,312.566 757.484,205.891 757.484,99.207 843.969,12.7227 950.652,12.7227 l 0.004,0 0,0.0078 136.314,0 0,72.25" /><path
         id="path18"
         style="fill:#94a1b5;fill-opacity:1;fill-rule:nonzero;stroke:none"
         d="m 719.352,225.438 c -0.071,95.902 -77.829,173.621 -173.75,173.621 -95.922,0 -173.684,-77.719 -173.754,-173.621 l -0.004,0 0,-212.7153 72.25,0 0,212.5743 c 0,0.348 -0.004,0.687 -0.004,1.031 0,56.184 45.539,101.719 101.719,101.719 56.171,0 101.3,-45.125 101.3,-101.305 0,-0.312 0.008,-0.929 0.004,-1.304 l -0.004,0 0,-212.7153 72.246,0 0,212.7153 -0.003,0" /><path
         id="path20"
         style="fill:#2a528b;fill-opacity:1;fill-rule:nonzero;stroke:none"
         d="m 1529.36,157.398 -203.77,0 0,67.258 0.01,0 c -0.01,0.348 -0.01,0.688 -0.01,1.035 0,56.391 45.71,102.098 102.1,102.098 56.37,0 101.67,-45.297 101.67,-101.684 0,-0.312 0.01,-0.929 0.01,-1.308 l -0.01,0 0,-67.399 z m 72.52,67.266 0,0.133 c -0.08,96.258 -78.13,174.266 -174.4,174.266 -96.28,0 -174.33,-78.008 -174.4,-174.266 l 0,-213.504 72.51,0 0,73.5898 203.77,0 0,-73.5898 72.52,0 0,213.371" /><path
         id="path22"
         style="fill:#2a528b;fill-opacity:1;fill-rule:nonzero;stroke:none"
         d="m 1916.4,399.063 0,-213.504 0.01,0 c 0,-0.379 -0.01,-0.996 -0.01,-1.309 0,-56.391 -45.29,-101.6836 -101.67,-101.6836 -56.39,0 -102.1,45.7066 -102.1,102.0976 0,0.348 0,0.688 0.01,1.035 l 0,213.364 -72.52,0 0,-213.504 c 0.07,-96.2582 78.12,-174.266 174.4,-174.266 96.28,0 174.33,78.0078 174.4,174.266 l 0,213.504 -72.52,0" /><path
         id="path24"
         style="fill:#2a528b;fill-opacity:1;fill-rule:nonzero;stroke:none"
         d="m 2317.28,399.07 -290.07,0 0,-72.515 108.77,0 0,-315.2542 72.52,0 0,315.2542 108.78,0 0,72.515" /><path
         id="path26"
         style="fill:#2a528b;fill-opacity:1;fill-rule:nonzero;stroke:none"
         d="m 4050.26,399.039 -108.78,0 0,0.031 -72.51,0 0,-0.031 -108.78,0 0,-72.519 108.78,0 0,-315.2192 72.51,0 0,315.2192 108.78,0 0,72.519" /><path
         id="path28"
         style="fill:#2a528b;fill-opacity:1;fill-rule:nonzero;stroke:none"
         d="m 4088.52,399.07 72.52,0 0,-387.7731 -72.52,0 0,387.7731" /><path
         id="path30"
         style="fill:#2a528b;fill-opacity:1;fill-rule:nonzero;stroke:none"
         d="m 2531.05,73.9531 c -72.8,0 -131.81,59.0159 -131.81,131.8089 0,72.797 59.01,131.804 131.81,131.804 72.79,0 131.8,-59.007 131.8,-131.804 0,-72.793 -59.01,-131.8089 -131.8,-131.8089 m -0.24,335.1599 c -112.98,0 -204.57,-91.582 -204.57,-204.558 C 2326.24,91.582 2417.83,0 2530.81,0 c 112.97,0 204.55,91.582 204.55,204.555 0,112.976 -91.58,204.558 -204.55,204.558" /><path
         id="path32"
         style="fill:#2a528b;fill-opacity:1;fill-rule:nonzero;stroke:none"
         d="m 3546.62,73.9531 c -72.79,0 -131.8,59.0159 -131.8,131.8089 0,72.797 59.01,131.804 131.8,131.804 72.79,0 131.8,-59.007 131.8,-131.804 0,-72.793 -59.01,-131.8089 -131.8,-131.8089 m -0.24,335.1599 c -112.98,0 -204.56,-91.582 -204.56,-204.558 C 3341.82,91.582 3433.4,0 3546.38,0 c 112.98,0 204.56,91.582 204.56,204.555 0,112.976 -91.58,204.558 -204.56,204.558" /><path
         id="path34"
         style="fill:#2a528b;fill-opacity:1;fill-rule:nonzero;stroke:none"
         d="m 4588.14,399.066 -72.52,0 -120.56,-318.1793 -120.58,318.1793 -72.51,0 131.36,-346.6676 0.01,0 c 10.14,-24.1445 34,-41.1054 61.84,-41.1054 30.59,0 56.35,20.5117 64.4,48.5195 l 128.56,339.2535" /><path
         id="path36"
         style="fill:#2a528b;fill-opacity:1;fill-rule:nonzero;stroke:none"
         d="m 4774.46,338.703 c 39.57,0 75.04,-17.332 99.35,-44.797 l -231.88,-78.113 c 5.14,68.734 62.48,122.91 132.53,122.91 z m 0,-265.8749 c -50.85,0 -95.01,28.5549 -117.37,70.4919 l 316.54,106.641 0.02,0 c -20.65,91.113 -102.07,159.156 -199.43,159.156 -112.98,0 -204.57,-91.582 -204.57,-204.554 0,-112.9771 91.59,-204.5551875 204.57,-204.5551875 93.74,0 172.69,63.0741875 196.88,149.0781875 l -76.53,0 c -21.3,-45.027 -67,-76.2579 -120.11,-76.2579" /><path
         id="path38"
         style="fill:#2a528b;fill-opacity:1;fill-rule:nonzero;stroke:none"
         d="m 3303.58,248.453 c -0.22,82.656 -67.9,150.211 -150.6,150.211 -45.64,0 -86.68,-20.598 -114.36,-52.926 -27.67,32.328 -68.71,52.926 -114.35,52.926 -82.7,0 -150.37,-67.543 -150.61,-150.187 l 0,-237.184 72.52,0 0,237.141 c 0.01,43.121 34.97,78.074 78.09,78.074 43.13,0 78.09,-34.953 78.1,-78.074 l 0,-237.141 72.52,0 0,237.141 c 0.01,43.121 34.97,78.074 78.09,78.074 43.12,0 78.08,-34.953 78.09,-78.074 l 0.01,0 0,-237.141 72.52,0 0,237.16 -0.02,0" /></g></g></svg>